<svg width="159.28mm" height="99.811mm" version="1.1" viewBox="0 0 159.28 99.811" xmlns="http://www.w3.org/2000/svg">
 <defs>
  <linearGradient id="a" x1="61.184" x2="219.47" y1="37.088" y2="37.088" gradientUnits="userSpaceOnUse">
   <stop stop-color="#d4e1e7" offset="0"/>
   <stop stop-color="#d4e1e7" stop-opacity="0" offset="1"/>
  </linearGradient>
 </defs>
 <g transform="translate(-18.351,-10.827)">
  <g transform="translate(-42.333,14.288)">
   <rect x="61.184" y="-2.9603" width="158.28" height="98.811" ry="10.225" fill="#e5eef0"/>
   <rect x="61.184" y="16.001" width="158.28" height="42.175" ry="0" fill="url(#a)"/>
   <g transform="matrix(1.5206,0,0,1.5206,-44.47,-20.915)">
    <path d="m80.296 27.163h16.306c2.2171 0 4.002 1.7849 4.002 4.002v14.007c0 2.2171-1.7849 4.002-4.002 4.002h-16.306c-2.2171 0-4.002-1.7849-4.002-4.002v-14.007c0-2.2171 1.7849-4.002 4.002-4.002z" fill="#e3b117" fill-opacity=".9964"/>
    <path d="m92.662 35.764 7.9476 0.24084m-7.9476 4.2749 7.9476-0.27094m-8.2186-12.855 0.18063 3.462 0.09032 5.1479v4.5157l-0.03011 5.178-0.22546 3.7189m-16.121-4.8328 8.0982 1.1741 3.8233 0.30104 4.4254-0.36126 8.0147-1.0897m-24.348-4.1185 7.8439 0.12042m-7.8573-4.3351 7.8874-0.0301m-7.8881-4.1244 7.9784-1.2042 3.9437-0.39136 4.3652 0.33115 8.0445 0.98495m-16.218-4.4323-0.1358 3.5075s-0.06914 3.5522-0.09032 5.3285c-0.01735 1.455-0.0301 4.3652-0.0301 4.3652l0.24084 5.1479 0.19535 3.6286" fill="none" stroke="#17303c" stroke-width=".75"/>
   </g>
   <rect x="61.184" y="-2.9603" width="158.28" height="98.811" ry="10.225" fill="none" stroke="#000" stroke-linecap="round" stroke-linejoin="round"/>
  </g>
 </g>
</svg>
